<svg version="1.1" id="Layer_1" xmlns="http://www.w3.org/2000/svg" x="0" y="0" viewBox="0 0 319.7 144.2" xml:space="preserve"><style>.st0{fill:#fff}</style><path id="fullLogo" class="st0" d="M41.6 76.8c-2.1.2-4.1.3-6.2.3-2.3 0-4.5-.1-6.8-.3-.2-.1-.5 0-.7.2-.1.1-.1.3-.1.4.1.2.3.4.6.4 2.4.4 3.5.9 4 1.6.3.5.3 1.3 0 2.5-1.2 4.7-5 12.7-7.8 18.5-1.2 2.4-2.2 4.6-2.8 6-1-2.4-3.9-9.1-6.5-15.1-2.1-4.8-4.1-9.3-4.2-9.7-.4-.8-.4-1.8 0-2.6.4-.7 1.3-1.1 2.8-1.2.6-.1.7-.4.7-.6 0-.2-.3-.5-.8-.4-1.8.1-5.3.2-6.5.2-1.2 0-4.3-.1-6.5-.2-.5-.1-.8.2-.8.5 0 .2.2.5.7.6 2.3.1 3.7 1.3 5.2 4.3 1 2 9.9 23.1 11.2 26.3.6 1.4 1 2.4 1.4 3.2.4.9.8 1.8 1.1 2.7 0 .2.1.3.2.4.1.1.2.1.3.1.1 0 .2 0 .3-.1.2-.1.2-.3.2-.4.6-2 1.3-3.9 2.1-5.8 2.4-5.5 6-12.8 8.8-18.7 1.4-2.9 2.6-5.5 3.4-7 2-4.3 3.6-4.6 6.3-5.1l.6-.1c.4-.1.6-.4.5-.6 0-.1-.2-.3-.7-.3z"/><path id="fullLogo-2" class="st0" d="M58.5 103.9v-9.5c0-7.8.3-7.8 2.8-8.4.3 0 .5-.3.5-.5s-.2-.4-.6-.3c-1.5.2-3 .3-4.6.4-1.5 0-2.9-.2-4.3-.4-.2 0-.4 0-.6.2-.1.1-.1.3-.1.4.1.2.3.3.5.3 2.4.4 2.6.4 2.6 8.4v9.4c0 8.6-.4 8.7-2.6 9-.2 0-.4.2-.4.5.1.3.3.5.6.4 1.4-.2 2.9-.2 4.3-.2.7 0 3.1.1 4.7.2h.1c.2 0 .3-.1.4-.2.1-.1.1-.3.1-.4-.1-.2-.2-.3-.4-.3-2.5-.3-3-.7-3-9z"/><path id="fullLogo-3" class="st0" d="M106.2 112.2c-.3.3-.8.5-1.3.5-2.3 0-7.3-7-10.8-13.6 3.6-1.1 5.6-3.5 5.6-6.7 0-4.8-3.4-7.5-9.4-7.5H90c-.7 0-1.6.1-2.6.1-1 .1-1.9.1-2.4.1-1 0-2.1 0-3.1-.1-.3 0-.5.1-.6.4 0 .2.1.4.5.5 1.7.3 2.2.4 2.2 8.5v9.5c0 8.6-.2 8.8-2.6 9-.3 0-.5.2-.5.5s.3.4.5.4h.1c1.5-.1 3.5-.2 4.3-.2 1 0 2.8.1 4.7.2.1 0 .3 0 .4-.1.2-.1.3-.4.1-.6 0 0 0-.1-.1-.1-.1-.1-.2-.1-.3-.1-2.4-.3-2.9-.6-2.9-9v-4.2c.4.1.9.1 1.3.1h1c6 10.7 8.5 14.2 13.6 14.2 1.2 0 2.3-.3 3.2-1.1.3-.3.3-.6.2-.7-.2-.2-.5-.3-.8 0zM95.8 92.6c0 4.1-2.3 6.1-6.7 6.1-.5 0-.9 0-1.3-.1v-6.7-1.4c0-1.6 0-3.4-.1-4.4.9-.1 1.8-.2 2.7-.2h.3c3.4.1 5.1 2.2 5.1 6.7z"/><path id="fullLogo-4" class="st0" d="M141.1 85.1c-1.5.2-4.7.4-6.1.5-1 .1-2.8.1-3.6.1h-3.7c-.7 0-2.1-.1-3.3-.1-1.8 0-3.6-.2-5.3-.6-.2-.2-.4-.2-.6-.1-.2.1-.3.3-.2.6 0 2-.2 4-.5 6-.1.4.1.6.3.7.3 0 .5-.2.6-.4 1.1-4.2 2.7-4.9 5.8-5h1.1c.9 0 1.8 0 2.3-.1.1 1.4 0 8.5 0 13.2v4c0 8.4-.5 8.5-3.6 9-.3 0-.4.3-.4.5.1.3.3.4.6.4 1.7-.2 3.5-.3 5.2-.3.8 0 4 .1 5.5.3.2 0 .3 0 .5-.2.1-.1.1-.3.1-.5-.1-.2-.2-.3-.4-.3-3.4-.6-3.8-.6-3.8-8.9v-2.6c0-4.8 0-12.6.1-14.7 1.2 0 2.5 0 3.4.1 3.5.2 5.3 1.1 5.5 5.5 0 .4.3.6.5.6s.4-.2.4-.6c0-2.2.2-4.3.4-6.5.2-.2.1-.5-.1-.7-.3-.1-.6-.1-.7.1z"/><path id="fullLogo-5" class="st0" d="M215.4 84.6c-.4 0-.9 0-1.3.1h-.5c-7.3.9-12.8 7.2-12.8 14.6 0 8.1 6.9 14.6 15.3 14.6.7 0 1.3-.1 2-.2h.3c7.1-1.2 12.4-7.3 12.4-14.5-.2-8-7-14.6-15.4-14.6zm-1.5 1.2h1c6.2 0 11.7 7.3 11.7 15.7.2 5.2-3.2 9.8-8.2 11.2l-.3.1c-.5.1-1.1.1-1.6.1-6.4 0-11.7-7-11.7-15.6 0-6.9 4.6-10.7 8.9-11.3l.2-.2z"/><path id="fullLogo-6" class="st0" d="M258 98.1c-.9-.5-3-1.7-3.8-2.3-1.9-1.1-3-3-3-5.2-.2-1.8.9-3.5 2.5-4.2l.1-.1c.8-.2 1.7-.4 2.5-.4 3.4 0 4.4 2.5 5.2 5.1 0 .2.2.4.4.5.1 0 .3 0 .4-.1.1-.2.2-.4.1-.6-.2-1.6-.5-4.9-.5-5 .1-.3 0-.6-.3-.7-.2 0-.3 0-.4.1-1.3-.4-2.7-.6-4.1-.6-1.3 0-2.6.2-3.8.8l-.1.1c-2 .9-5.1 3.6-5.1 7.2 0 2.7 1.5 5 4.3 6.8.8.5 2.3 1.4 3.1 1.8 3 1.7 4.2 3.6 4.2 6.4.2 1.8-.8 3.5-2.4 4.3l-.2.1c-1.2.4-2.4.7-3.7.7-4.1 0-5.5-2.7-6.5-6.8-.1-.4-.4-.4-.5-.4-.2 0-.3.2-.4.3v.2c0 .2.5 4.4.7 6.1-.1.2-.1.3 0 .5s.3.3.5.2c.1 0 .2-.1.3-.1 1.9.8 3.9 1.1 5.9.9 1.3 0 2.7-.3 3.9-.7l.2-.1c5.1-2.2 5.6-6.1 5.6-7.7.1-2.7-1.7-5.3-5.1-7.1z"/><path id="fullLogo-7" class="st0" d="M294.1 84.6c-.4 0-.9 0-1.3.1h-.5c-7.3.9-12.8 7.2-12.8 14.6 0 8.1 6.9 14.6 15.3 14.6.7 0 1.3-.1 2-.2h.3c7.1-1.2 12.4-7.3 12.4-14.5-.1-8-7-14.6-15.4-14.6zm2.6 28c-.5.1-1.1.2-1.6.1-6.4 0-11.7-7-11.7-15.6 0-6.9 4.6-10.7 8.9-11.3h1.1c6.2 0 11.7 7.3 11.7 15.7.2 5.2-3.2 9.8-8.2 11.2l-.2-.1z"/><path id="fullLogo-8" class="st0" d="M186.7 85.3c-1.6.2-3 .3-4.3.3-1.5 0-3.1-.1-4.4-.3-.2 0-.4 0-.5.2-.1.1-.1.3 0 .4.1.2.3.3.5.3 2.8.4 3.5 1.1 3.7 6.7v9.7c.1 2.9-1 5.7-3.1 7.8-1.6 1.7-3.8 2.6-6.1 2.7h-.1c-2.6 0-8.7-.9-9-9.4-.1-1.9-.2-4.7-.1-9.1.2-7.8.5-7.8 3.3-8.4.4-.1.5-.3.5-.5 0-.3-.3-.4-.5-.4-1.7.2-3.3.3-5 .3-1.3 0-2.6-.1-4-.3-.3-.1-.6.1-.6.4 0 .2.1.4.5.5 2.1.3 2.3.3 2.2 8.4 0 3.5 0 6.2.1 10 .3 7.3 6.2 9.9 11.6 9.9 7.2 0 11.8-4.6 11.8-11.8v-8.1-1.7c0-4.7.9-6.3 3.7-6.8.2 0 .4-.3.4-.5-.1-.2-.4-.4-.6-.3z"/><path id="fullLogo-9" class="st0" d="M316.3 112.4c-1.7 0-3.1-1.4-3.1-3.1s1.4-3.1 3.1-3.1c1.7 0 3.1 1.4 3.1 3.1 0 1.8-1.4 3.1-3.1 3.1zm3.4-3c0-1.9-1.5-3.4-3.4-3.4s-3.4 1.5-3.4 3.4 1.5 3.4 3.4 3.4 3.4-1.5 3.4-3.4z"/><path id="fullLogo-10" class="st0" d="M315.5 109.2v-1.4h.8c.5 0 .9.1 1 .7 0 .6-.5.7-1 .7h-.8zm1.2.4c.6 0 1-.5 1-1.1 0-.7-.4-1.2-1.3-1.2H315v4h.5v-1.7h.7l1 1.7h.6l-1.1-1.7z"/><path id="fullLogo-11" class="st0" d="M150.2 37.6c0-.1.1-.1.1-.2.1-.6-.2.2-.1.2z"/><path id="fullLogo-12" class="st0" d="M153.2 39.5c.1-.1 0-.1 0-.2v.2z"/><path id="fullLogo-13" class="st0" d="M153.4 39.5c0-.1.1-.1.1-.2-.1.1-.1.1-.1.2z"/><path id="fullLogo-14" class="st0" d="M150.4 44.8c-.2 0-.4-.1-.5-.1-.1.1-.2.2-.3.2 0 .2.2.3.2.4.2 0 .4.1.5.1v-.2c0-.1 0-.3.1-.4z"/><path id="fullLogo-15" class="st0" d="M151.6 50c-.1 0-.3-.2-.4 0-.1-.1-.2-.2-.3-.2-.1 0-.2 0-.3-.1-.2-.3-.9.2-.9.2.2.5-.6 0-.8.3-.2-.3-.5.3-.6-.1-.2.2-.4.3-.6.5-.4-.2 0 .3-.4.1-.9.5-.4 1.5-1.4 2 0 .1 0 .3.1.4.5.1.6.6.6.9.6.3.3 1.1.9 1.3-.1.8.4-.4.6.4.6.2-.2.5 0 .9.1.1.5.3.4 0 .6.7.1-.6.6-.5 0-.1.1-.1 0-.2.5-.1.6.3.7.2.1.1.3-.5.4-.8 0 .1.1.3.3.1-.1-.3 1-.7.5-.9.8-.4-.1-1.2.6-1.6.1.2.3-.2.5-.2.1-.4-.4-.5-.4-.9.3-.5-.3-1.1-.1-1.8z"/><path id="fullLogo-16" class="st0" d="M165.2.5c-.6.5-.1-.4-.4-.5-.9.8-1.6 1.8-2.3 2.8-2.5 4.1-4.6 8.3-6.3 12.8-.4.6-1.1 1.8-2.7 7.4-1.7 6.4-2.9 12.9-3.7 19.4-.2 1.1-.3 2.1-.3 3.2.2.1 0 .5-.1.5-.1.3-.3.7 0 .9.3-.2 0-.1 0-.3 0-.1.1-.2.2-.3-.1-.5.1-.6.3-.7.2-.3-.2-.5-.2-.8.6-.3.4-.6.6-1.2.2-.2.5.1.4.4.3.5-.4.6-.2 1.1 0 .3-.3.6-.3.9.1.3.3-.1.3-.2.2-.1 1.7-4.9 1.8-5.1.2-.2.1-.4.2-.4 0-.1-.1 0-.2-.1.2-.1-.1-.6.2-.3.2-.1-.2-.7.2-.8-.2-.6.5-1.1.3-1.7 0 1-.1 2.1-.3 3.1.3-.2.1-.4.4-.4-.2-.6.2-.6.2-.9.1-.1-.2-.2 0-.3.2 0 .1 0 0-.1.3-.4 1.2-4.6 1.7-6.1.5-1.6 6.4-18.2 7.1-19.3.8-1.7 1.3-3.4 2.1-5.1.1-.2.2-.4.3-.5.1-.1 0 0-.3.1.2-.6.9-1.8.7-1.8-.1.2-.2.3-.3.4 0-.4.4-.9.3-1.3.4-.6 0-1.3.4-1.9-.2 0-.3-.2-.2-.4 0-.1.5-.8.1-.6-.1-.6.4-.9.3-1.3-.4.1 0-.4-.3-.6z"/><path id="fullLogo-17" class="st0" d="M172.7 26.3c-1.9-2-4.2-3.7-6.7-5 1.3-.7 2.5-1.6 3.4-2.8 1.5 1 4.2 2.7 4.5 5 .2 1-.3 2.1-1.2 2.8zm.3 6.2c-.7 1.3-1.8 2.4-3.1 2.9-.4-2.1-1.5-4.1-3.1-5.4 1.7-.4 3.4-1 4.9-1.8 1 1.1 2 2.7 1.3 4.3zm-4.9 6.1c-1 1.2-2.3 2-3.8 2.5.2-1.2-.2-2.5-.9-3.5 1.8-.1 3.6-.4 5.3-.9 0 .7-.2 1.3-.6 1.9zm-5.4-1.8c-3.7-3.5-9.7-5.7-13.2-6.4-4.7-.8-8.5-.7-11.3.9-1.5-.9-3.5-2.4-3.1-4.2.8-1.8 3.3-1.9 3.3-1.9s4.3 2.8 12.6 4.5c.2.1.5.1.7.1 0-.1.1-.4.2-.7-4.3-.9-8.5-2.3-12.5-4.2 4.1-.8 8.6-.2 12.6.7 3.8.9 7.5 2.3 10.9 4.2-2.3.1-4.7.1-7-.1-.1.2-.2.5-.2.7 2.8.4 5.6.4 8.4 0 1.8 1.1 4.3 3.1 4.6 5.4-1.9.6-4 .9-6 1zm-27-15.7c0-1.1.7-2.1 1.8-2.4.9-.4 1.9-.7 2.9-.7.6.5 1.2 1 1.8 1.4 2.4 1.6 6.9 3 11.1 3.6.1-.2.2-.5.2-.7-1.3-.2-2.6-.5-4.3-.9-2.8-.7-5.4-1.9-7.8-3.6 7-.8 13.7 1.1 19.8 3.5l1.1.5c-1.3.4-2.6.7-3.9.7 0 .1-.3.8-.3.8 1.8-.1 3.7-.4 5.4-1 .1 0 2.7 1.5 3.7 2.1 1.4.8 2.7 1.8 3.8 2.9-1.7.9-3.4 1.6-5.3 1.9-4.7-3.5-11.3-5.2-15-6s-9.5-1.1-13.4.1c-.7-.4-1.4-1.2-1.6-2.2zm4.4-6.8c.7-1.7 4.7-2.2 6.4-2.3h2.4c.1.2.2.5.4.7 1.5 2 4.4 3 6.6 3.4.1-.1.1-.2.1-.3-2.1-.5-4.9-1.6-6-3.7 6.6.4 13 2.5 18.6 5.9-.8 1.3-2.1 2.2-3.5 2.8-1.3-.6-6.9-3.3-11.7-4.2-4.8-.9-9.4-1.2-12.9-.5l-.3.1c-.4-.7-.4-1.4-.1-1.9zM155.3 8c6.2.2 12.7 3.2 13.8 7.8-5.5-3.3-11.7-5.3-18.1-5.9h-.8c.9-1.7 4.1-1.9 5.1-1.9zm19.8 16.3c1.1-3.4-2.3-6-4.9-7.7.1-.9 0-1.8-.3-2.7-1.6-3.7-6.1-6.4-10.5-7.4-.5-.1-1.1-.2-1.7-.3-.8-.1-1.5-.1-2.3-.1-2.6.1-5.6 1-6.5 3.7-3 .1-6.8.1-8.8 2.4-1.1 1-1.4 2.6-.7 4-1.9.6-4.4 1.7-4.7 4-.1 1.5 1 2.4 2 3.5-.3.1-.5.3-.8.5-.9.7-1.8 1.5-1.8 2.7-.1 2.3 2 3.8 3.6 4.9-.6.5-1 1.1-1.1 1.9-.1 3.2 2.8 4.6 4.8 6 1.4 3.2 4.9 4.8 7.9 5.5v-.7c-2.8-.8-5.9-2.3-7-4.5 2.3 1.1 4.7 2 7.2 2.6.1-.2.1-.6.1-.8-2.5-.6-5-1.5-7.3-2.6.3-1.4 1.8-1.7 3.5-1.6 1.9.2 3.9.6 5.7 1.2 1.5.5 3.1 1.5 3.1 2.2 0 .4-.3.7-.7.8.1.3.5.2.9.1.7-.2 1-1 .8-1.7 0-.1 0-.1-.1-.1-1.4-2.5-6.1-3.9-9-4-1 0-2 .1-3 .3-1 .2-1.8.9-2.2 1.8l-.1.5c-1.8-1.1-3.7-2.5-3.9-4.2-.1-.9.4-1.7 1.2-2.1 0 0 .8.4 3 1.3 2.9 1.1 5.8 2 8.8 2.6 0-.3.1-.6.2-.9-.2 0-.3-.1-.5-.2-3.6-.7-7-1.8-10.3-3.3.1 0 .7-.2 1.1-.2 3.3-.5 6.7-.2 10 .8 3.4.9 6.6 2.3 9.6 4.2-2.2 0-4.4-.2-6.5-.6-.1.2-.2.6-.2.8 2.5.4 5.1.7 7.6.7 1.1 1 1.7 2.4 1.8 3.8-3.3 1.1-5.9 1.5-11.5.7-.1.2-.2.5-.2.7.2 0 .6.1.8.1 3.1.4 6.7.7 10.3-.5-2.5 2.7-7.6 2.7-10.7 2.4-.3 0-.7-.1-1-.1-.1.2-.1.4-.2.6l1.8.3c2.7.3 9.3.2 11.9-3.8 2.5-1 5.5-2.5 5.8-5.6 1.8-.9 3.9-2.5 4.4-4.5.3-1.7 0-3.5-1.1-5 .7-.4 1.4-1.4 1.7-2.4z"/><path id="fullLogo-18" class="st0" d="M107.2 134.4h3.9c2.3 0 3.7 1.3 3.7 3.3 0 2.2-1.8 3.3-3.9 3.3H109v3.2h-1.7v-9.8zm3.8 5.1c1.3 0 2.1-.7 2.1-1.8s-.8-1.8-2.1-1.8h-2v3.5l2 .1z"/><path id="fullLogo-19" class="st0" d="M117.7 134.4h4.4c1-.1 2.1.3 2.8 1 .5.6.8 1.3.8 2.1 0 1.4-.9 2.7-2.3 3l2.6 3.7h-2l-2.4-3.4h-2.2v3.4h-1.7v-9.8zm4.3 4.9c1.2 0 2-.6 2-1.6 0-1.1-.8-1.6-2-1.6h-2.5v3.3l2.5-.1z"/><path id="fullLogo-20" class="st0" d="M129 134.4h7.3v1.5h-5.5v2.6h4.9v1.5h-4.9v2.6h5.6v1.5H129v-9.7z"/><path id="fullLogo-21" class="st0" d="M139.5 134.4h7.3v1.6h-5.6v2.7h4.9v1.6h-4.9v4h-1.7v-9.9z"/><path id="fullLogo-22" class="st0" d="M149.8 134.4h7.3v1.5h-5.5v2.6h4.9v1.5h-4.9v2.6h5.6v1.5h-7.3l-.1-9.7z"/><path id="fullLogo-23" class="st0" d="M160.3 134.4h4.4c1-.1 2.1.3 2.8 1 .5.6.8 1.3.8 2.1 0 1.4-.9 2.7-2.3 3l2.6 3.7h-2l-2.4-3.4H162v3.4h-1.7v-9.8zm4.2 4.9c1.2 0 2-.6 2-1.6 0-1.1-.8-1.6-2-1.6H162v3.3l2.5-.1z"/><path id="fullLogo-24" class="st0" d="M171.5 134.4h4.4c1-.1 2.1.3 2.8 1 .5.6.8 1.3.8 2.1 0 1.4-.9 2.7-2.3 3l2.6 3.7h-2l-2.4-3.4h-2.2v3.4h-1.7v-9.8zm4.2 4.9c1.2 0 2-.6 2-1.6 0-1.1-.8-1.6-2-1.6h-2.5v3.3l2.5-.1z"/><path id="fullLogo-25" class="st0" d="M182.7 134.4h7.3v1.5h-5.5v2.6h4.9v1.5h-4.9v2.6h5.6v1.5h-7.3l-.1-9.7z"/><path id="fullLogo-26" class="st0" d="M193.2 134.4h3.7c2.7-.2 5 1.9 5.2 4.6v.3c0 2.7-2.2 4.9-4.9 4.9h-4v-9.8zm3.7 8.3c1.8.1 3.3-1.2 3.4-3v-.3c.1-1.8-1.3-3.3-3.1-3.3H195v6.7h1.9z"/></svg>
