<svg xmlns="http://www.w3.org/2000/svg" viewBox="0 0 1000 315.802"><g fill="currentColor"><path d="M849.648 77.698h68.508v67.729h12.52V77.698H999.5v-11.36h-68.823V.5h-12.521v65.838h-68.508zM606.359 315.302c-39.32 0-65.756-22.803-65.756-56.733v-91.776h34.744v91.776c0 19.569 16.716 26.5 31.012 26.5 19.386 0 31.426-10.149 31.426-26.5v-91.776h34.76v91.776c0 34.461-25.987 56.733-66.186 56.733m-154.825 0c-29.52 0-55.174-9.22-78.392-28.176l-1.493-1.194 19.835-23.98 1.443 1.16c13.532 10.813 32.454 23.235 59.038 23.235 13.914 0 30.15-4.743 30.15-18.11 0-11.46-11.858-14.594-33.748-16.385-27.314-1.708-68.625-4.312-68.625-42.969 0-34.212 30.98-46.385 59.968-46.385 28.574 0 53.997 10.365 67.082 19.254l1.708 1.16-20.083 24.495-1.443-1.078c-4.644-3.45-21.808-14.676-48.127-14.676-11.874 0-24.56 4.013-24.56 15.307 0 10.132 15.738 11.393 32.388 12.736l2.654.216c25.157 1.708 67.314 4.527 67.314 45.323 0 31.825-23.732 50.067-65.109 50.067m544.589-4.297H870.417V166.808h120.764v30.432h-86.236v23.532h51.825v30.233h-51.825v29.751h91.178zm-682.96.005h34.528V166.811h-34.528zm-29.453-.005H158.004V166.808h120.764v30.432h-86.236v23.532h51.825v30.233h-51.825v29.751h91.178zm-145.815 0H20.779V166.808h34.544v113.948h82.572zm650.727-81.41h-48.425v-33.002h46.286c5.406 0 10.995.663 15.44 5.473 2.868 2.869 4.378 6.65 4.378 10.912 0 9.47-7.596 16.617-17.679 16.617m24.843 23.798c17.579-8.375 27.595-23.002 27.595-40.415 0-11.277-4.311-22.04-12.139-30.332-10.182-10.663-24.411-15.854-43.516-15.854h-79.736v144.213h34.528V259.38h38.724l28.375 51.625h39.668z"/><path d="M878.678 144.73H761.76V.747h34.461v113.798h82.456zm-140.6 0H612.554V.747h120.598v30.398H647.05v23.5h51.742v30.182H647.05v29.718h91.029zm-205.961 0H503.08L436.279.747h38.989l42.968 100.349L561.222.747h37.712zm-446.243 0H51.379V31.145H.5V.748h136.038v30.398H85.874zm278.968-57.672l19.038-44.412 19.022 44.412zM399.038.738h-28.823L303.398 144.72h36.634l12.67-29.619h62.356l12.886 29.62h37.91zM236.43 63.44h-48.358V30.503h46.203c5.39 0 10.978.663 15.423 5.456 2.852 2.885 4.378 6.65 4.378 10.912 0 9.453-7.595 16.567-17.645 16.567m24.793 23.798c17.546-8.375 27.546-22.985 27.546-40.365 0-11.26-4.296-22.023-12.107-30.299C266.497 5.926 252.285.753 233.213.753h-79.619v143.98h34.478V93.208h38.64l28.36 51.527h39.618z"/></g></svg>