<svg viewBox="0 0 455 78" xmlns="http://www.w3.org/2000/svg"><path fill="currentColor" d="M0 .89h15.758c19.284 0 31.406 14.033 31.406 36.976v1.78c0 22.497-11.901 36.975-31.406 36.975H0zm15.097 65.486c12.673 0 20.166-10.023 20.166-27.064v-1.113c0-17.262-6.501-27.062-20.166-27.062H11.57v55.239zM53.137.89H88.95v10.247H64.598v30.85h20.497V52.23H64.598v14.145h25.235V76.62H53.137V.891zm41.676 0h14.325c16.197 0 27.22 10.358 27.22 28.066v1.113c0 17.596-10.8 28.4-27.22 28.4h-2.755v18.153h-11.57zm11.571 47.332h2.645c10.798 0 15.758-7.35 15.758-18.153v-.891c0-11.25-4.96-18.042-15.758-18.042h-2.645zm49.126-48h1.433l25.014 76.399h-12.12l-2.866-9.467h-22.15l-2.864 9.467h-11.462zm-7.714 57.243h16.2l-5.18-17.262c-1.21-4.009-2.644-10.134-2.754-11.025-.22.668-1.652 6.905-2.864 11.025zm58.505.222c-1.764.335-3.526.446-5.29.446h-3.526v18.488h-11.57V.891h15.096c16.09 0 26.998 10.357 26.998 28.065v1.113c0 10.915-4.517 19.156-11.57 23.722l12.341 22.83h-12.45zm-8.816-9.242h3.416c10.689 0 15.539-7.573 15.539-18.376v-.891c0-11.25-4.85-18.042-15.539-18.042h-3.416zm46.238-37.308h-15.317V.89h42.205v10.246h-15.317V76.62h-11.571zm31.073 43.21V.891h11.572v53.234c0 8.242 3.747 12.807 10.578 12.807 6.834 0 10.581-4.565 10.581-12.807V.89h11.571v53.456c0 15.592-9.147 23.276-22.152 23.276-13.001 0-22.15-7.684-22.15-23.276zm72.047 3.34c-1.763.335-3.526.446-5.29.446h-3.526v18.488h-11.571V.891h15.097c16.088 0 26.998 10.357 26.998 28.065v1.113c0 10.915-4.519 19.156-11.569 23.722l12.34 22.83h-12.451zm-8.816-9.242h3.416c10.689 0 15.54-7.573 15.54-18.376v-.891c0-11.25-4.851-18.042-15.54-18.042h-3.416zM374.523.89h35.815v10.247h-24.354v30.85h20.496V52.23h-20.496v14.145h25.236V76.62h-36.697zm39.251 69.16l6.833-8.241c2.975 2.783 6.501 5.457 11.902 5.457 6.28 0 10.358-3.786 10.358-9.355v-.892c0-4.453-2.095-7.683-7.603-12.36l-7.274-6.238c-6.832-5.903-10.91-11.248-10.91-19.935v-.78C417.08 7.239 424.793 0 435.924 0c7.052 0 11.24 1.67 15.648 4.79l-5.511 8.908c-2.644-1.893-5.4-3.452-9.806-3.452-4.409 0-8.045 2.895-8.045 7.24v.556c0 4.789 2.424 7.685 7.494 11.917l7.492 6.347c7.274 6.237 11.13 12.028 11.13 20.27v1.112c0 11.36-7.713 19.935-21.487 19.935-8.817 0-14.658-3.007-19.066-7.572z" fill-rule="evenodd"/></svg>