<svg viewBox="0 0 247.5 20.972" xmlns="http://www.w3.org/2000/svg"><path d="M246.18 18.092c-.72 0-1.32.6-1.32 1.41 0 .81.6 1.41 1.32 1.41.72 0 1.32-.6 1.32-1.41 0-.81-.6-1.41-1.32-1.41m-47.766 2.73h6.06v-.54l-.66-.15c-.6-.15-.87-.48-.87-1.32v-8.16h1.41c.87 0 1.32.21 1.38 2.04l.15 3.84c.12 3.45 1.11 4.41 2.791 4.41 1.71 0 2.16-1.17 2.16-2.82v-.69h-.63v.51c0 1.11-.15 1.89-.57 1.89-.39 0-.42-.3-.51-1.68l-.18-2.64c-.24-3.54-.69-4.77-3.3-5.251 2.49-.66 4.02-2.49 4.02-5.1 0-3.391-2.67-5.011-5.22-5.011h-10.231v.54l.57.12c1.08.24 1.11.81 1.11 3.24v11.942c0 2.67-.75 3.96-2.461 3.96-1.53 0-2.37-.75-2.37-3.66V2.1c0-.84.27-1.08.93-1.23l.81-.18V.15h-6.27v.54l.659.18c.6.18.81.42.81 1.26v13.952c0 3.15 1.83 4.89 4.621 4.89 2.79 0 4.17-1.74 4.17-4.98V2.97c0-1.62.331-2.19 1.65-2.19 1.05 0 1.501.36 1.501 1.35v16.682c0 .84-.27 1.14-.87 1.29l-.66.18zM238.679 2.13c0-.84.27-1.11.87-1.23l.81-.18V.15h-6.24v.54l.66.18c.6.18.87.42.87 1.26v16.803c0 .81-.33 1.26-1.261 1.26-1.08 0-1.23-.36-1.62-2.13L228.928.09h-1.2l-3.66 17.402c-.421 1.95-.631 2.4-1.442 2.64l-.51.15v.54h4.291v-.54l-.63-.12c-.9-.18-1.14-.66-.69-2.94l2.16-11.132 2.37 11.792c.36 1.71.331 2.04-.96 2.28l-.63.12v.54h15.902v-6.84h-.57c-.3 3.15-.93 6.12-3.48 6.12h-1.2zm-9.361 13.112v-.81h-4.051l-.12.81zM212.575 2.49v14.342c0 2.16 0 3.18-1.08 3.36l-.54.09v.54h4.41v-.54c-1.92-.27-1.92-.93-1.92-3.27V3.39l-.72-.66 7.352 18.092h1.26V4.14c0-2.46 0-3 1.2-3.33l.42-.12V.15h-4.531v.54l.51.12c1.53.27 1.53.87 1.53 3.15v10.441l.3-.09L215.187.15h-4.29v.54l.42.12c.48.15.75.69 1.26 1.68M202.943.87h1.2c1.2 0 2.31.78 2.31 4.68 0 3.99-.839 4.381-2.52 4.381h-.99zm-19.982 9.421c0 8.67-.72 9.901-2.28 9.901-1.56 0-2.25-1.23-2.25-9.841 0-8.34.75-9.541 2.25-9.541 1.56 0 2.28 1.2 2.28 9.481m3.27.18c0-5.73-1.83-10.471-5.55-10.471-3.75 0-5.521 4.74-5.521 10.471 0 5.761 1.83 10.501 5.52 10.501 3.811 0 5.552-4.74 5.552-10.5M173.39 2.13c0-.84.21-1.11.81-1.26l.66-.18V.15h-6.21v.54l.749.18c.6.15.93.36.93 1.23v14.432c0 2.01-.18 3.63-1.68 3.63-.96 0-1.68-.75-1.65-1.29.09-.93 1.65-.87 1.77-2.37.09-1.08-.6-1.53-1.23-1.62-.93-.12-2.07.66-2.1 2.22-.03 2.01 1.29 3.84 3.54 3.84 2.49 0 4.411-1.68 4.411-4.89zm-100.213 0c0-.84.27-1.11.87-1.23l.81-.18V.15h-6.24v.54l.66.18c.6.18.87.42.87 1.26v16.803c0 .81-.33 1.26-1.26 1.26-1.08 0-1.26-.36-1.65-2.13L63.398.09h-1.2l-3.661 17.402c-.42 1.95-.63 2.4-1.44 2.64l-.51.15v.54h4.29v-.54l-.63-.12c-.9-.18-1.14-.66-.69-2.94l2.16-11.192 2.37 11.852c.33 1.71.33 2.04-.96 2.28l-.63.12v.54H78.43v-6.84h-.57c-.3 3.15-.93 6.12-3.481 6.12h-1.2zm83.53-1.26h.66c1.861 0 2.491 2.97 2.701 6.12h.57V.15h-10.891v6.84h.57c.21-3.15.84-6.12 2.7-6.12h.66v17.942c0 .84-.27 1.14-.87 1.29l-.78.18v.54h6.481v-.54l-.93-.21c-.57-.15-.87-.33-.87-1.26zm-13.71 9.57l.929.031c1.35.03 1.74.54 2.01 3.81h.57v-8.34h-.57c-.33 2.61-.69 3.72-1.98 3.75l-.96.03V.87h2.07c2.31 0 2.821 2.91 3.15 6.12h.57V.15h-10.35v.54l.66.18c.69.18.87.6.87 1.29v16.652c0 .84-.27 1.14-.87 1.29l-.66.18v.54h10.65v-6.84h-.57c-.36 3.12-.75 6.12-3.45 6.12h-2.07zm-11.312 0l.93.031c1.35.03 1.74.54 2.01 3.81h.57v-8.34h-.57c-.33 2.61-.69 3.72-1.98 3.75l-.96.03V.87h2.07c2.31 0 2.82 2.97 3.15 6.12h.57V.15h-10.65v.54l.96.18c.69.18.87.6.87 1.29v16.652c0 .84-.27 1.14-.87 1.29l-.66.18v.54h10.65v-6.84h-.57c-.36 3.12-.75 6.12-3.45 6.12h-2.07zM119.354.87h.9c1.2 0 2.31.78 2.31 4.68 0 3.93-.84 4.381-2.52 4.381h-.69zm-4.53 19.952h6.06v-.54l-.66-.15c-.6-.15-.87-.48-.87-1.32v-8.16h1.11c.87 0 1.32.36 1.38 2.04l.15 3.84c.12 3.45 1.11 4.41 2.79 4.41 1.711 0 2.161-1.17 2.161-2.82v-.69h-.63v.51c0 1.11-.15 1.89-.57 1.89-.39 0-.42-.3-.51-1.68l-.18-2.64c-.24-3.63-.72-4.77-3.3-5.251 2.49-.66 4.02-2.49 4.02-5.1 0-3.391-2.67-5.011-5.22-5.011h-5.731v.54l.66.18c.6.18.87.42.87 1.26v16.682c0 .84-.27 1.14-.87 1.29l-.66.18zM110.234.87h.66c1.86 0 2.49 2.97 2.7 6.12h.57V.15h-10.892v6.84h.57c.21-3.15.84-6.12 2.7-6.12h.66v17.942c0 .84-.27 1.14-.87 1.29l-.78.18v.54h6.331v-.54l-.78-.18c-.78-.18-.87-.78-.87-1.29zm-6.932 14.582c0-6.151-6.75-7.771-6.75-12.242 0-.96.36-2.4 1.86-2.4 2.16 0 2.97 2.79 3.33 6.18h.57V.15h-.36c-.15.66-.42.96-.81.96-.69 0-1.05-1.08-2.7-1.08-2.55 0-4.29 2.13-4.29 4.92 0 5.071 6.75 7.201 6.75 11.882 0 2.13-.99 3.33-2.34 3.33-2.01 0-3.33-2.37-3.69-6.18h-.57v6.84h.36c.3-.99.69-1.08 1.02-1.08.57 0 1.17 1.2 2.91 1.2 2.67 0 4.71-2.31 4.71-5.49M83.65 2.13c0-.84.27-1.11.87-1.23l.81-.18V.15h-6.24v.54l.66.18c.6.18.87.42.87 1.26v16.682c0 .84-.27 1.14-.87 1.29l-.66.18v.54h9.81v-6.84h-.57c-.3 3.15-.93 6.12-3.48 6.12h-1.2zM63.787 15.242v-.81h-4.05l-.12.81zm-17.342 5.64h1.23l2.79-14.761h-.42l3.061 14.761h1.08l3.661-17.401c.39-1.831.6-2.46 1.32-2.641l.57-.15V.15h-4.23v.54l.63.12c.9.18 1.11.72.69 2.94l-2.37 11.672h.36l-2.4-12.302c-.241-1.17-.39-2.13.6-2.31l.66-.12V.15h-5.791v.54l.39.09c.6.15.69.51.93 1.65l.93 4.47-.18-2.7-2.07 10.922h.27L45.726 3.12c-.27-1.23-.36-2.16.599-2.34l.45-.09V.15h-5.91v.54l.57.15c.54.15.84.42 1.2 2.07zM30.424 10.441l.93.03c1.35.03 1.74.54 2.01 3.81h.57v-8.34h-.57c-.33 2.61-.69 3.72-1.98 3.75l-.96.03V.87h2.07c2.31 0 2.82 2.97 3.15 6.12h.57V.15H25.863v.54l.66.18c.69.18.87.6.87 1.29v16.652c0 .84-.27 1.14-.87 1.29l-.66.18v.54h10.651v-6.84h-.57c-.36 3.12-.75 6.12-3.45 6.12h-2.07zM11.55 20.822h6.15v-.54l-.689-.15c-.54-.12-.9-.48-.9-1.32v-8.19h4.53v8.19c0 .84-.36 1.2-.9 1.32l-.69.15v.54h6.15v-.54l-.66-.18c-.599-.15-.87-.48-.87-1.32V2.13c0-.84.271-1.11.87-1.26l.66-.18V.15h-6.15v.54l.69.18c.51.15.9.36.9 1.23v7.711h-4.53v-7.71c0-.841.33-1.08.9-1.231l.69-.18V.15H11.55v.54l.66.18c.6.18.87.42.87 1.26v16.682c0 .84-.27 1.14-.87 1.29l-.66.18zM6.961.87h.66c1.86 0 2.49 2.97 2.7 6.12h.57V.15H0v6.84h.57C.78 3.84 1.41.87 3.27.87h.66v17.942c0 .84-.27 1.14-.87 1.29l-.78.18v.54h6.48v-.54l-.929-.21c-.57-.15-.87-.33-.87-1.26z" fill="currentColor"/></svg>