<svg viewBox="0 0 185.469 24.414" xmlns="http://www.w3.org/2000/svg"><path fill="currentColor" d="M13.92 2.502c0-1.992-1.872-2.568-3.432-2.496v.312c.936.023 1.656.336 1.656.959 0 .433-.312.984-1.248.984-.744 0-2.184-.432-3.336-.816-1.272-.432-2.472-.84-3.48-.84C2.112.605.624 2.07.624 3.869c0 1.465 1.104 1.992 1.56 2.185l.144-.24c-.288-.193-.576-.408-.576-.984 0-.433.384-1.129 1.392-1.129.912 0 2.112.408 3.696.864 1.368.384 2.88.744 3.696.841v3.119L9 9.798v.12l1.536 1.344v4.296c-.792.456-1.704.576-2.496.576-1.464 0-2.856-.384-3.96-1.608l4.128-1.992V5.646L3.144 7.902c.528-1.344 1.584-2.232 2.664-2.88l-.072-.24C2.736 5.598 0 8.357 0 11.766c0 4.08 3.312 7.103 7.08 7.103 4.08 0 6.672-3.191 6.624-6.575l-.24-.024c-.6 1.296-1.464 2.52-2.592 3.168v-4.176l1.632-1.296-.024-.144-1.608-1.297V5.406c1.488 0 3.048-1.008 3.048-2.904zm-8.76 11.16l-1.224.6c-.696-.912-1.152-2.136-1.152-3.84 0-.696.072-1.561.288-2.16l2.112-.936zm10.68 2.232l-1.344 1.009.168.191.648-.456 2.256 2.063 3.024-2.016-.144-.216-.792.504-.984-.983V9.078l.816-.601 1.728 1.392v6.121c0 3.815-.84 4.439-2.568 5.064v.265c2.856.119 5.424-.841 5.424-5.736V9.006l.912-.721-.168-.215-.792.623-2.472-2.136-2.88 2.16V.414h-.216l-3.576 2.4v.216c.36.217.96.36.96 1.561zm18.432-1.08l-2.472 1.92-2.568-2.017v-1.2l4.776-3.191v-.145l-2.376-3.648-5.208 2.785v6.623l-1.032.793.168.215.936-.744 3.408 2.473 4.56-3.6zm-5.04-1.656V8.214l.168-.12 2.208 3.48zM53.567 1.59c0-.312-.072-.576-.192-.935h-.24c-.312.84-.696 1.295-1.68 1.295-.864 0-1.536-.527-1.896-.912 0 .024-2.88 3.336-2.88 3.336l.24.217.816-.936c.624.48 1.079.936 2.472.959v8.4L44.303 2.789c-.456-.768-1.224-1.92-2.64-1.92-1.584 0-3.048 1.369-2.856 3.673h.288c.072-.624.384-1.296 1.08-1.296.552 0 1.056.527 1.32 1.008v3.288c-1.824 0-3.024.84-3.024 2.327 0 .769.384 2.064 1.656 2.305l.024-.217c-.168-.168-.337-.359-.337-.695 0-.552.408-.912 1.152-.912.12 0 .456.023.528.048v4.272c-2.136.024-3.792 1.199-3.792 3.216 0 1.92 1.656 2.832 3.384 2.735l.024-.239c-1.08-.12-1.656-.624-1.656-1.32 0-.864.624-1.319 1.416-1.319.816 0 1.536.504 2.04 1.08l2.904-3.24-.24-.217-.744.84c-1.104-.983-1.728-1.344-3-1.535V4.565l8.136 14.185h.576V4.613c1.561-.095 3.025-1.271 3.025-3.023zm7.272 13.224l-2.472 1.921-2.568-2.017v-1.2l4.776-3.191v-.145l-2.376-3.648-5.208 2.785v6.623l-1.032.793.168.215.936-.744 3.408 2.473 4.56-3.6zm-5.04-1.656V8.214l.168-.12 2.208 3.48zm21.551-5.52l-.744.552-1.92-1.632-2.232 2.017.912.863v7.608l-2.448-1.56V9.294l.792-.552-2.352-2.185-2.184 2.017.912.863v7.225l-.312.191-2.136-1.512V9.27c0-1.392-.672-1.8-1.56-2.352-.744-.456-1.08-.84-1.08-1.536 0-.576.576-.912.864-1.08-.024-.024-.024-.24-.024-.24-.768-.024-2.904.816-2.952 2.761-.024 1.008.456 1.439.96 1.92.504.479.96.936.96 1.775v5.832l-1.08.84.168.217.984-.768 2.664 2.088 2.52-1.704 2.784 1.704 5.352-3.12V8.838l1.32-.96zm18.696-5.544l-1.008.912-2.256-1.969-3.288 2.449V1.182h-.336l.072 16.344c-.336-.048-1.176-.24-1.944-.359L87.214 3.51c0-1.008-.72-2.4-2.52-2.4-1.848 0-3.048 1.416-3.048 2.832h.288c.096-.6.408-1.128 1.008-1.128.624 0 1.152.384 1.152 1.728v3.936c-1.848.072-2.904 1.104-2.904 2.376 0 .792.36 2.016 1.656 2.064l.048-.24c-.432-.191-.528-.456-.528-.696 0-.575.552-.815 1.32-.815h.36v6.24c-1.464.504-2.136 1.584-2.136 2.808 0 1.68 1.344 2.952 3.312 2.952 1.392 0 2.592-.24 3.864-.528 1.032-.216 2.28-.456 2.88-.456.768 0 1.104.36 1.104.912 0 .695-.312.96-.72 1.08l.048.24c1.656-.312 2.616-1.297 2.616-2.784 0-1.536-1.464-2.448-3.096-2.448-.84 0-2.496.264-3.744.553-1.392.311-2.808.455-3.24.455-.696 0-1.56-.336-1.56-1.272 0-.84.696-1.512 2.424-1.512.936 0 1.992.144 3.144.407 1.224.265 2.304.601 3.36.601 1.464 0 2.784-.528 2.784-2.664V3.318l1.176-1.009zM91.918 8.31c-.264.288-.696.576-1.2.576-.552 0-.96-.336-1.224-.576V3.822l1.032-.696 1.392 1.272zm0 3c-.24-.239-.672-.504-1.2-.504s-1.008.311-1.224.504V8.67c.216.191.696.527 1.224.527s.96-.287 1.2-.527zm0 4.704c0 .816-.552 1.607-1.608 1.607-.168 0-.648-.023-.816-.047V11.67c.24-.217.672-.553 1.224-.553.504 0 .912.289 1.2.553zm13.776-7.153l-3.264-2.328-4.896 2.809v6.576l-1.008.816.144.215.792-.647 3.24 2.376 4.992-3.048zm-5.352 6.361v-7.2l2.544 1.824v7.2zm14.976-8.424c0 .024-.192 0-.192 0-.264.239-.6.407-.888.407-.384 0-.888-.239-1.128-.551h-.192l-1.704 1.871-1.752-1.871-2.976 2.063.144.239.792-.527 1.032 1.104v6.36l-1.344 1.009.168.191.648-.456 2.424 2.063 3.144-2.088-.144-.216-.888.528-1.176-1.057v-7.08c.504.553 1.104 1.033 1.8 1.033 1.344.002 2.088-1.486 2.232-3.022zm12.12 9.672l-3.432 2.256-4.656-7.032 3.288-5.111.216-.024c.384.384 1.056.792 1.68.792.696 0 1.176-.384 1.464-.792 0 0 .192.024.192 0-.12 2.04-1.488 3.192-2.52 3.192-1.056 0-1.56-.48-2.112-.816l-.312.456 5.04 7.464 1.008-.624zm-11.088-.576l-1.344 1.009.168.191.648-.456 2.256 2.063 3.024-2.016-.168-.216-.768.504-.984-.983V.414h-.216l-3.648 2.424v.216c.36.216 1.032.312 1.032 1.536zm27.815-13.392c0-1.992-1.872-2.568-3.432-2.496v.312c.936.023 1.656.336 1.656.959 0 .433-.312.984-1.248.984-.744 0-2.184-.432-3.336-.816-1.272-.432-2.472-.84-3.48-.84-1.968 0-3.456 1.465-3.456 3.264 0 1.465 1.104 1.992 1.56 2.185l.144-.24c-.288-.192-.576-.407-.576-.983 0-.433.384-1.129 1.392-1.129.912 0 2.112.408 3.696.864 1.368.384 2.88.744 3.696.841v3.119l-1.536 1.273v.12l1.536 1.344v4.296c-.792.456-1.704.576-2.496.576-1.464 0-2.856-.384-3.96-1.608l4.128-1.992V5.646l-5.064 2.257c.528-1.345 1.584-2.232 2.664-2.881l-.072-.24c-3 .816-5.736 3.576-5.736 6.984 0 4.08 3.312 7.103 7.08 7.103 4.08 0 6.672-3.191 6.624-6.575l-.24-.024c-.6 1.296-1.464 2.52-2.592 3.168v-4.176l1.632-1.296-.024-.144-1.608-1.297V5.406c1.488 0 3.048-1.008 3.048-2.904zm-8.76 11.16l-1.224.6c-.696-.912-1.152-2.136-1.152-3.84 0-.696.072-1.561.288-2.16l2.112-.936zm12.216-12.097l-.144-.023-2.016 1.704v.144l1.704 1.92h.168l2.016-1.68-.024-.12zm3.072 14.905l-.768.504-.984-.983V9.029l.96-.72-.192-.239-.744.575-1.752-2.088-2.88 2.017.168.264.72-.481.888 1.104v6.528l-1.296.983.144.192.672-.48 2.208 2.016 3.024-2.016zm16.8-.12l-.72.48-1.08-.984v-6.84l1.032-.768-.168-.217-.888.672-2.304-2.136-2.976 2.112-2.28-2.112-2.928 2.088-1.8-2.088-2.88 2.017.144.264.72-.481.984 1.08v6.528l-.792.792 2.304 1.943 2.232-2.016-.912-.863V9.006l.864-.576 1.56 1.439v6.097l-.768.792 2.328 1.943 2.184-2.016-.912-.863V8.957l.768-.504 1.656 1.416v6l-.672.696 2.352 2.136 3.096-2.111zm8.76-1.536l-2.472 1.921-2.568-2.017v-1.2l4.776-3.191v-.145l-2.376-3.648-5.208 2.785v6.84l3.48 2.519 4.56-3.6zm-5.04-1.656V8.214l.168-.12 2.208 3.48zm14.256-.94l-1.944-1.464c1.296-1.128 1.8-2.641 1.8-3.672 0-.144-.024-.408-.048-.648h-.24c-.192.528-.576.984-1.368.984-.768 0-1.32-.432-1.8-.961l-4.536 2.473v3.672l1.68 1.32c-1.704 1.512-2.016 2.568-2.016 3.336 0 1.008.456 1.729 1.32 2.064l.12-.217c-.216-.191-.408-.312-.408-.768 0-.336.408-.816 1.176-.816.984 0 1.584.672 1.896 1.032 0-.024 4.368-2.616 4.368-2.616zm-1.08-3.025c-.672 1.2-2.232 2.377-3.096 3.049l-1.104-.864V7.802c.432.96 1.488 1.776 2.64 1.776.672 0 1.032-.121 1.56-.385zm-1.776 8.017c-.504-1.128-1.68-1.944-2.88-1.944-.288 0-1.128 0-1.896.481.456-.769 1.8-2.209 3.528-3.24l1.248.96z"/></svg>